<svg xmlns="http://www.w3.org/2000/svg" viewBox="0 0 512 512">
  <defs>
    <linearGradient id="bg" x1="0" y1="0" x2="0" y2="1">
      <stop offset="0%" stop-color="#0c1222"/>
      <stop offset="100%" stop-color="#060a14"/>
    </linearGradient>
    <linearGradient id="b1" x1="0" y1="0" x2="1" y2="0">
      <stop offset="0%" stop-color="#67E8F9"/>
      <stop offset="100%" stop-color="#22D3EE"/>
    </linearGradient>
    <linearGradient id="b2" x1="0" y1="0" x2="1" y2="0">
      <stop offset="0%" stop-color="#38BDF8"/>
      <stop offset="100%" stop-color="#0EA5E9"/>
    </linearGradient>
    <linearGradient id="b3" x1="0" y1="0" x2="1" y2="0">
      <stop offset="0%" stop-color="#60A5FA"/>
      <stop offset="100%" stop-color="#3B82F6"/>
    </linearGradient>
    <linearGradient id="b4" x1="0" y1="0" x2="1" y2="0">
      <stop offset="0%" stop-color="#818CF8"/>
      <stop offset="100%" stop-color="#6366F1"/>
    </linearGradient>
    <linearGradient id="b5" x1="0" y1="0" x2="1" y2="0">
      <stop offset="0%" stop-color="#A78BFA"/>
      <stop offset="100%" stop-color="#8B5CF6"/>
    </linearGradient>
    <filter id="glow">
      <feGaussianBlur stdDeviation="8" result="blur"/>
      <feMerge>
        <feMergeNode in="blur"/>
        <feMergeNode in="SourceGraphic"/>
      </feMerge>
    </filter>
  </defs>
  <rect width="512" height="512" fill="url(#bg)"/>
  <g opacity="0.35" filter="url(#glow)">
    <rect x="170" y="88"  width="240" height="48" rx="24" fill="url(#b1)"/>
    <rect x="100" y="158" width="240" height="48" rx="24" fill="url(#b2)"/>
    <rect x="136" y="228" width="240" height="48" rx="24" fill="url(#b3)"/>
    <rect x="172" y="298" width="240" height="48" rx="24" fill="url(#b4)"/>
    <rect x="100" y="368" width="240" height="48" rx="24" fill="url(#b5)"/>
  </g>
  <rect x="170" y="88"  width="240" height="48" rx="24" fill="url(#b1)"/>
  <rect x="100" y="158" width="240" height="48" rx="24" fill="url(#b2)"/>
  <rect x="136" y="228" width="240" height="48" rx="24" fill="url(#b3)"/>
  <rect x="172" y="298" width="240" height="48" rx="24" fill="url(#b4)"/>
  <rect x="100" y="368" width="240" height="48" rx="24" fill="url(#b5)"/>
  <rect x="180" y="89"  width="180" height="14" rx="14" fill="white" opacity="0.1"/>
  <rect x="110" y="159" width="180" height="14" rx="14" fill="white" opacity="0.1"/>
  <rect x="146" y="229" width="180" height="14" rx="14" fill="white" opacity="0.1"/>
  <rect x="182" y="299" width="180" height="14" rx="14" fill="white" opacity="0.1"/>
  <rect x="110" y="369" width="180" height="14" rx="14" fill="white" opacity="0.1"/>
</svg>
